<?xml version="1.0" encoding="utf-8"?>
<!-- Generator: Adobe Illustrator 19.1.0, SVG Export Plug-In . SVG Version: 6.00 Build 0)  -->
<svg version="1.1" id="Слой_3" xmlns="http://www.w3.org/2000/svg" xmlns:xlink="http://www.w3.org/1999/xlink" x="0px" y="0px"
	 viewBox="0 0 128 128" enable-background="new 0 0 128 128" xml:space="preserve">
<g>
	<path fill="#B9E3ED" d="M88.178,29.491l-4.971-8.285c-0.566-0.943-1.929-1.715-3.029-1.715h-31c-1.1,0-2.463,0.771-3.029,1.715
		l-4.971,8.285"/>
	<path fill="#324654" d="M88.18,31.491c-0.68,0-1.342-0.346-1.717-0.971l-4.971-8.285c-0.205-0.341-0.917-0.744-1.314-0.744h-31
		c-0.398,0-1.109,0.403-1.314,0.744l-4.971,8.285c-0.568,0.947-1.798,1.254-2.744,0.685c-0.947-0.568-1.254-1.797-0.686-2.744
		l4.971-8.285c0.934-1.556,2.929-2.685,4.744-2.685h31c1.815,0,3.81,1.13,4.744,2.685l4.971,8.285
		c0.568,0.947,0.261,2.176-0.686,2.744C88.885,31.399,88.53,31.491,88.18,31.491z"/>
	<path fill="#B9E3ED" d="M118.959,59.491l-9.753-10.489c-0.749-0.806-2.262-1.467-3.362-1.47l-15.667-0.036
		c-1.1-0.003-2,0.896-2,1.995v10"/>
	<path fill="#324654" d="M118.959,61.491c-0.536,0-1.071-0.215-1.465-0.638l-9.752-10.489c-0.374-0.403-1.014-0.872-1.564-0.873h-16
		v10c0,1.105-0.896,2-2,2c-1.105,0-2-0.895-2-2v-10c0-1.067,0.417-2.071,1.175-2.827c0.755-0.754,1.756-1.168,2.819-1.168
		c0.003,0,0.007,0,0.011,0l15.666,0.036c1.663,0.005,3.691,0.891,4.822,2.108l9.752,10.488c0.752,0.81,0.706,2.075-0.103,2.827
		C119.935,61.314,119.447,61.491,118.959,61.491z"/>
	<path fill="#B9E3ED" d="M10.178,73.491l7.687-11.345c0.617-0.91,2.022-1.655,3.122-1.655h18.191c1.1,0,2,0.9,2,2v11"/>
	<path fill="#324654" d="M10.176,75.491c-0.386,0-0.776-0.111-1.12-0.345c-0.914-0.619-1.153-1.862-0.534-2.777l7.687-11.345
		c0.996-1.468,3.005-2.533,4.778-2.533h18.191c2.206,0,4,1.794,4,4v11c0,1.104-0.896,2-2,2s-2-0.896-2-2v-11H20.986
		c-0.439,0-1.22,0.414-1.467,0.777l-7.686,11.345C11.447,75.184,10.817,75.491,10.176,75.491z"/>
	<path fill="#B8CBCD" d="M113.513,109.679c0,5.625-21.01,9.813-47.335,9.813c-26.326,0-48-4.188-48-9.813
		c0-5.626,21.341-10.188,47.667-10.188C92.17,99.491,113.513,104.053,113.513,109.679z"/>
	<polygon fill="#B9E3ED" points="88.178,59.491 88.178,29.491 41.178,29.491 41.178,73.491 10.178,73.491 10.178,107.491 
		119.178,107.491 119.178,59.491 	"/>
	<path fill="#324654" d="M119.178,109.491h-109c-1.104,0-2-0.896-2-2v-34c0-1.104,0.896-2,2-2h29v-42c0-1.104,0.896-2,2-2h47
		c1.104,0,2,0.896,2,2v28h29c1.104,0,2,0.896,2,2v48C121.178,108.596,120.282,109.491,119.178,109.491z M12.178,105.491h105v-44h-29
		c-1.105,0-2-0.895-2-2v-28h-43v42c0,1.104-0.896,2-2,2h-29V105.491z"/>
	<path fill="#324654" d="M65.178,61.491c-1.105,0-2-0.895-2-2V45.999l-1.466,1.753c-0.708,0.847-1.969,0.961-2.817,0.251
		c-0.847-0.709-0.959-1.97-0.251-2.817l5-5.978c0.541-0.645,1.427-0.883,2.217-0.597c0.791,0.287,1.317,1.038,1.317,1.88v19
		C67.178,60.596,66.282,61.491,65.178,61.491z"/>
	<path fill="#324654" d="M61.239,61.496c-1.104,0-2-0.895-2-1.999c-0.001-1.104,0.894-2,1.999-2.001l7.939-0.005h0.002
		c1.104,0,1.999,0.895,2,1.999c0,1.104-0.894,2-1.999,2.001l-7.939,0.005C61.24,61.496,61.239,61.496,61.239,61.496z"/>
	<path fill="#324654" d="M82.178,19.491l6,10v18l19.667,0.046l11.114,11.954h0.219v48h-109v-34l8.809-13h22.191v-31l6-10H82.178
		 M82.178,15.491h-35c-1.405,0-2.707,0.737-3.43,1.942l-6,10c-0.372,0.621-0.57,1.333-0.57,2.058v27H18.986
		c-1.327,0-2.567,0.658-3.311,1.756l-8.809,13c-0.449,0.662-0.689,1.444-0.689,2.244v34c0,2.209,1.791,4,4,4h109
		c2.209,0,4-1.791,4-4v-48c0-1.461-0.783-2.738-1.953-3.436l-10.451-11.241c-0.755-0.812-1.812-1.273-2.92-1.276l-15.676-0.036
		v-14.01c0-0.725-0.197-1.437-0.57-2.058l-6-10C84.885,16.228,83.583,15.491,82.178,15.491L82.178,15.491z"/>
	<path fill="#324654" d="M107.178,91.491h-10c-1.105,0-2-0.896-2-2c0-2.759,2.458-5.077,5.061-7.532
		c1.878-1.771,4.215-3.975,4.215-5.374c0-1.954-1.773-2.394-2.394-2.394c-1.913,0-2.883,0.97-2.883,2.883c0,1.104-0.896,2-2,2
		c-1.105,0-2-0.896-2-2c0-4.755,3.457-6.883,6.883-6.883c3.143,0,6.394,2.392,6.394,6.394c0,3.125-2.781,5.748-5.471,8.284
		c-0.845,0.797-1.854,1.749-2.621,2.622h6.815c1.104,0,2,0.896,2,2S108.282,91.491,107.178,91.491z"/>
	<path fill="#324654" d="M26.348,100.491c-3.12,0-6.347-2.374-6.347-6.347c0-1.104,0.896-2,2-2c1.104,0,2,0.896,2,2
		c0,1.916,1.738,2.347,2.347,2.347c0.29,0,2.83-0.079,2.83-2.83c0-0.014-0.044-1.381-1.623-1.381c-1.104,0-2-0.896-2-2s0.896-2,2-2
		c1.562,0,1.623,0,1.623-1.864c0-2.118-1.641-2.347-2.347-2.347c-1.878,0-2.83,0.952-2.83,2.83c0,1.104-0.896,2-2,2
		c-1.104,0-2-0.896-2-2c0-4.718,3.43-6.83,6.83-6.83c3.154,0,6.347,2.18,6.347,6.347c0,1.765-0.348,3.113-1.065,4.069
		c0.693,0.935,1.065,2.063,1.065,3.176C33.178,98.098,29.659,100.491,26.348,100.491z"/>
	<path opacity="0.2" fill="#324654" d="M117.178,107.491h-105c-1.657,0-3-1.343-3-3c0-1.657,1.343-3,3-3h105c1.657,0,3,1.343,3,3
		C120.178,106.148,118.834,107.491,117.178,107.491z"/>
</g>
</svg>
