<?xml version="1.0" encoding="utf-8"?>
<!-- Generator: Adobe Illustrator 19.1.0, SVG Export Plug-In . SVG Version: 6.00 Build 0)  -->
<svg version="1.1" id="Слой_3" xmlns="http://www.w3.org/2000/svg" xmlns:xlink="http://www.w3.org/1999/xlink" x="0px" y="0px"
	 viewBox="0 0 128 128" enable-background="new 0 0 128 128" xml:space="preserve">
<g>
	<path fill="#702C17" d="M82.696,84.365c-1.657,0-3-1.343-3-3c0-1.657,1.343-3,3-3c9.501,0,23-11.896,23-23
		c0-3.282-0.863-5.391-2.567-6.268c-2.617-1.345-7.643-0.182-11.688,2.709c-1.352,0.961-3.223,0.649-4.186-0.697
		c-0.963-1.349-0.65-3.223,0.697-4.186c5.017-3.584,12.505-5.95,17.923-3.161c2.655,1.367,5.821,4.489,5.821,11.602
		C111.696,70.027,95.091,84.365,82.696,84.365z"/>
	<path fill="#702C17" d="M43.713,84.365c-12.395,0-29-14.338-29-29c0-7.113,3.166-10.235,5.821-11.602
		c5.419-2.787,12.905-0.422,17.923,3.161c1.348,0.963,1.66,2.837,0.697,4.186c-0.964,1.347-2.835,1.659-4.186,0.697
		c-4.047-2.891-9.072-4.054-11.689-2.709c-1.704,0.877-2.567,2.985-2.567,6.268c0,11.105,13.499,23,23,23c1.657,0,3,1.343,3,3
		C46.713,83.022,45.37,84.365,43.713,84.365z"/>
	<ellipse fill="#B8CBCD" cx="64.01" cy="112.179" rx="47.667" ry="10.186"/>
	<path fill="#F6E89A" d="M35.696,58.365c0,3.59,11.959,6.626,27.146,6.626c15.187,0,27.854-3.036,27.854-6.626v-15
		c0-3.59-12.666-6.374-27.854-6.374c-15.188,0-27.146,2.784-27.146,6.374V58.365z"/>
	<path fill="#702C17" d="M62.843,66.991c-10.825,0-29.146-1.816-29.146-8.626v-15c0-8.139,26.163-8.374,29.146-8.374
		c3.056,0,29.854,0.235,29.854,8.374v15C92.696,65.188,73.169,66.991,62.843,66.991z M37.696,58.298
		c0.795,1.658,10.014,4.693,25.146,4.693c15.4,0,24.933-3.046,25.854-4.719V43.465c-0.952-1.632-10.247-4.474-25.854-4.474
		c-15.326,0-24.318,2.831-25.146,4.447V58.298z"/>
	<g>
		<defs>
			<path id="SVGID_7_" d="M87.46,32.938c0.409,13.924-10.841,25.075-24.224,25.435C49.735,58.931,37.783,47.425,37.87,32.757
				C38.015,17.892,50.217,7.836,62.808,8.866C75.46,9.22,86.893,18.986,87.46,32.938z"/>
		</defs>
		<clipPath id="SVGID_2_">
			<use xlink:href="#SVGID_7_"  overflow="visible"/>
		</clipPath>
	</g>
	<g>
		<defs>
			<path id="SVGID_9_" d="M87.46,32.938c0.409,13.924-10.841,25.075-24.224,25.435C49.735,58.931,37.783,47.425,37.87,32.757
				C38.015,17.892,50.217,7.836,62.808,8.866C75.46,9.22,86.893,18.986,87.46,32.938z"/>
		</defs>
		<use xlink:href="#SVGID_9_"  overflow="visible" fill="#FFFFFF"/>
		<clipPath id="SVGID_4_">
			<use xlink:href="#SVGID_9_"  overflow="visible"/>
		</clipPath>
		<path clip-path="url(#SVGID_4_)" fill="#F6E89A" d="M18.559,49.258c-1.121-2.233-2.054-4.514-2.733-6.735
			c0.32-2.003,0.856-4.172,1.613-6.44c1.498-0.008,3.463-0.014,5.702-0.019c1.115,2.407,2.382,4.864,3.732,7.305
			c-1.094,2.368-2.037,4.635-2.785,6.721C21.951,49.872,20.058,49.6,18.559,49.258z"/>
		<path clip-path="url(#SVGID_4_)" fill="#8D4520" d="M24.09,52.09c-0.067,0-0.136-0.003-0.204-0.011
			c-2.336-0.237-4.277-0.531-5.771-0.871c-0.583-0.133-1.075-0.52-1.343-1.053c-1.193-2.378-2.155-4.749-2.858-7.048
			c-0.09-0.291-0.111-0.6-0.063-0.9c0.345-2.159,0.914-4.433,1.691-6.758c0.272-0.813,1.029-1.361,1.886-1.366
			c1.5-0.008,3.467-0.014,5.709-0.019c0.001,0,0.003,0,0.004,0c0.779,0,1.487,0.452,1.814,1.159c1.038,2.24,2.273,4.655,3.668,7.177
			c0.309,0.558,0.333,1.229,0.065,1.808c-1.088,2.356-2.003,4.563-2.718,6.557C25.684,51.565,24.926,52.09,24.09,52.09z
			 M19.925,47.499c0.821,0.154,1.768,0.299,2.835,0.43c0.546-1.416,1.175-2.914,1.878-4.477c-1.013-1.862-1.939-3.666-2.763-5.385
			c-1.078,0.003-2.076,0.006-2.969,0.009c-0.442,1.477-0.786,2.919-1.028,4.305C18.413,44.051,19.099,45.768,19.925,47.499z"/>
		<path clip-path="url(#SVGID_4_)" fill="#F6E89A" d="M17.439,36.083c-0.742-2.26-1.259-4.417-1.567-6.403
			c0.695-2.226,1.645-4.498,2.777-6.722c1.501-0.355,3.388-0.637,5.518-0.863c0.73,2.063,1.659,4.313,2.74,6.669
			c-1.359,2.435-2.639,4.891-3.766,7.301C20.903,36.069,18.938,36.076,17.439,36.083z"/>
		<path clip-path="url(#SVGID_4_)" fill="#8D4520" d="M17.439,38.083c-0.864,0-1.631-0.555-1.9-1.376
			c-0.755-2.298-1.308-4.559-1.644-6.721c-0.047-0.302-0.023-0.611,0.067-0.903c0.714-2.285,1.691-4.651,2.904-7.033
			c0.267-0.523,0.751-0.903,1.322-1.038c1.516-0.358,3.401-0.654,5.766-0.906c0.923-0.088,1.788,0.449,2.098,1.322
			c0.697,1.97,1.596,4.157,2.672,6.502c0.267,0.58,0.24,1.252-0.071,1.809c-1.413,2.531-2.657,4.944-3.7,7.173
			c-0.328,0.702-1.032,1.151-1.808,1.153c-2.236,0.005-4.199,0.012-5.697,0.019C17.445,38.083,17.442,38.083,17.439,38.083z
			 M17.923,29.832c0.233,1.374,0.565,2.796,0.988,4.245c0.893-0.004,1.89-0.007,2.966-0.01c0.831-1.717,1.767-3.523,2.794-5.394
			c-0.69-1.541-1.304-3.017-1.836-4.41c-1.062,0.137-2.005,0.286-2.823,0.446C19.169,26.448,18.469,28.166,17.923,29.832z"/>
		<path clip-path="url(#SVGID_4_)" fill="#8D4520" d="M18.653,22.933c-0.366-1.872-0.553-3.55-0.639-5.048
			c1.092-2.046,2.397-3.995,3.859-5.742c1.558-0.499,3.334-0.941,5.269-1.334c0.294,1.292,0.773,2.852,1.447,4.659
			c-1.538,2.086-3.024,4.311-4.42,6.601C22.041,22.296,20.154,22.578,18.653,22.933z"/>
		<path clip-path="url(#SVGID_4_)" fill="#F6E89A" d="M21.874,12.143c-0.096-1.249-0.091-2.312-0.103-3.295
			c1.521-1.406,3.264-2.518,5.245-3.084c1.847-0.054,3.706-0.106,5.576-0.152c-0.241,0.067-0.329,0.406-0.206,1.092
			c-1.857,0.977-3.604,2.422-5.243,4.106C25.207,11.202,23.432,11.643,21.874,12.143z"/>
		<path clip-path="url(#SVGID_4_)" fill="#8D4520" d="M21.874,14.143c-0.394,0-0.782-0.116-1.116-0.341
			c-0.508-0.341-0.831-0.896-0.878-1.507c-0.087-1.129-0.096-2.114-0.104-2.982l-0.005-0.441c-0.007-0.565,0.227-1.107,0.642-1.492
			c1.88-1.737,3.917-2.929,6.055-3.538c0.16-0.046,0.324,0.118,0.49,0.113c1.85-0.054,3.712,0.037,5.585,0.037
			c0.017,0,0.033,0,0.051,0c0.987,0,1.83,0.533,1.977,1.514c0.063,0.424-0.011,0.744-0.192,1.103
			c0.076,0.802-0.338,1.532-1.061,1.912c-1.528,0.804-3.079,2.001-4.741,3.707c-0.28,0.288-0.641,0.473-1.034,0.553
			c-1.933,0.393-3.635,0.817-5.059,1.272C22.284,14.117,22.079,14.143,21.874,14.143z M27.338,7.755
			c-1.069,0.337-2.119,0.893-3.137,1.662c0.621-0.152,1.271-0.301,1.946-0.444c0.438-0.433,0.871-0.841,1.304-1.221
			C27.413,7.753,27.376,7.754,27.338,7.755z"/>
		<path clip-path="url(#SVGID_4_)" fill="#F6E89A" d="M28.261,56.811c-1.53-2.107-3.008-4.345-4.391-6.643
			c0.733-2.076,1.659-4.334,2.743-6.694c2.43,0.077,5.057,0.127,7.758,0.16c1.419,2.479,2.867,4.939,4.323,7.344
			c-1.245,2.337-2.384,4.547-3.346,6.517C32.859,57.312,30.473,57.089,28.261,56.811z"/>
		<path clip-path="url(#SVGID_4_)" fill="#8D4520" d="M35.349,59.495c-0.049,0-0.098-0.002-0.148-0.005
			c-2.648-0.194-5.067-0.428-7.19-0.694c-0.549-0.068-1.044-0.361-1.369-0.81c-1.558-2.145-3.066-4.428-4.486-6.786
			c-0.308-0.512-0.371-1.135-0.172-1.697c0.752-2.13,1.698-4.439,2.812-6.863c0.336-0.729,1.049-1.197,1.881-1.164
			c2.228,0.07,4.752,0.123,7.719,0.159c0.708,0.009,1.359,0.392,1.711,1.006c1.417,2.475,2.863,4.932,4.299,7.302
			c0.365,0.604,0.386,1.354,0.054,1.976c-1.287,2.417-2.402,4.589-3.313,6.454C36.808,59.062,36.108,59.495,35.349,59.495z
			 M29.373,54.932c1.466,0.171,3.066,0.326,4.781,0.466c0.665-1.332,1.416-2.789,2.242-4.356c-1.067-1.774-2.136-3.592-3.191-5.423
			c-1.952-0.027-3.709-0.063-5.317-0.106c-0.684,1.545-1.289,3.029-1.811,4.435C27.135,51.666,28.239,53.336,29.373,54.932z"/>
		<path clip-path="url(#SVGID_4_)" fill="#FFFFFF" d="M26.613,43.475c-1.35-2.438-2.609-4.894-3.716-7.296
			c1.116-2.404,2.383-4.86,3.736-7.294c2.426-0.081,5.048-0.133,7.747-0.17c1.279,2.443,2.646,4.949,4.041,7.457
			c-1.396,2.508-2.767,5.016-4.051,7.463C31.667,43.602,29.043,43.551,26.613,43.475z"/>
		<path clip-path="url(#SVGID_4_)" fill="#F6E89A" d="M26.635,28.856c-1.074-2.353-1.991-4.599-2.712-6.661
			c1.388-2.29,2.869-4.517,4.405-6.606c2.207-0.282,4.582-0.513,7.067-0.699c0.949,1.946,2.077,4.142,3.315,6.467
			c-1.457,2.396-2.906,4.852-4.329,7.329C31.681,28.722,29.06,28.775,26.635,28.856z"/>
		<path clip-path="url(#SVGID_4_)" fill="#8D4520" d="M26.635,30.991c-0.781,0-1.493-0.522-1.819-1.236
			c-1.111-2.435-2.047-4.767-2.78-6.866c-0.197-0.565-0.132-1.203,0.177-1.713c1.436-2.37,2.952-4.651,4.505-6.762
			c0.324-0.441,0.814-0.734,1.357-0.803c2.155-0.276,4.567-0.517,7.172-0.712c0.809-0.061,1.589,0.381,1.947,1.116
			c0.916,1.88,2.021,4.034,3.283,6.403c0.332,0.624,0.311,1.376-0.057,1.979c-1.419,2.332-2.867,4.784-4.304,7.286
			c-0.353,0.613-1.002,1.062-1.708,1.072c-2.921,0.038-5.442,0.237-7.707,0.237C26.679,30.991,26.656,30.991,26.635,30.991z
			 M26.129,22.423c0.509,1.383,1.105,2.854,1.782,4.393c1.624-0.046,3.377-0.084,5.306-0.112c1.067-1.846,2.138-3.658,3.195-5.411
			c-0.809-1.534-1.548-2.974-2.21-4.301c-1.692,0.141-3.288,0.301-4.767,0.477C28.305,19.041,27.196,20.702,26.129,22.423z"/>
		<path clip-path="url(#SVGID_4_)" fill="#F6E89A" d="M28.328,15.59c-0.67-1.809-1.14-3.371-1.428-4.669
			c1.635-1.692,3.375-3.15,5.228-4.146c1.972-0.298,4.039-0.562,6.177-0.783c0.355,0.611,0.964,1.677,1.788,3.124
			c-1.598,1.653-3.165,3.64-4.698,5.774C32.911,15.079,30.535,15.308,28.328,15.59z"/>
		<path clip-path="url(#SVGID_4_)" fill="#8D4520" d="M28.327,17.59c-0.827,0-1.581-0.514-1.875-1.306
			c-0.68-1.837-1.186-3.495-1.504-4.93c-0.145-0.655,0.047-1.34,0.514-1.823c1.953-2.022,3.824-3.5,5.721-4.517
			c0.202-0.108,0.421-0.182,0.647-0.216c2.029-0.307,4.139-0.574,6.27-0.795c0.777-0.075,1.539,0.304,1.935,0.984
			c0.358,0.614,0.969,1.685,1.798,3.14c0.439,0.771,0.317,1.74-0.3,2.379c-1.376,1.424-2.852,3.24-4.513,5.552
			c-0.345,0.479-0.884,0.782-1.473,0.827c-2.611,0.198-4.89,0.424-6.965,0.688C28.496,17.585,28.411,17.59,28.327,17.59z
			 M29.112,11.537c0.158,0.587,0.349,1.214,0.569,1.876c1.438-0.163,2.973-0.31,4.638-0.444c1.17-1.593,2.265-2.959,3.311-4.136
			c-0.146-0.256-0.282-0.493-0.407-0.712c-1.507,0.171-2.994,0.364-4.442,0.579C31.59,9.38,30.381,10.314,29.112,11.537z"/>
		<path clip-path="url(#SVGID_4_)" fill="#F6E89A" d="M38.736,50.867c-1.455-2.405-2.901-4.9-4.321-7.379
			c1.287-2.449,2.658-4.497,4.056-7.497c2.794,0,5.622,0,8.451,0c1.415,3,2.832,5.062,4.245,7.569
			c-1.41,2.504-2.816,5.014-4.176,7.424C44.203,50.96,41.438,50.933,38.736,50.867z"/>
		<path clip-path="url(#SVGID_4_)" fill="#8D4520" d="M46.991,52.991c-0.006,0-0.011,0-0.017,0c-2.799,0-5.574-0.063-8.287-0.129
			c-0.682-0.017-1.309-0.378-1.662-0.962c-1.413-2.335-2.875-4.82-4.346-7.389c-0.34-0.594-0.354-1.319-0.035-1.924
			c1.153-2.194,2.487-4.681,4.079-7.538c0.353-0.634,1.021-1.058,1.746-1.058h4.214h4.239c0.722,0,1.389,0.42,1.742,1.05
			l4.244,7.551c0.344,0.609,0.344,1.362,0,1.972l-4.176,7.409C48.378,52.603,47.712,52.991,46.991,52.991z M39.882,48.893
			c1.958,0.043,3.944,0.074,5.947,0.096l3.042-5.428l-3.118-5.569h-3.069h-3.036c-1.104,2-2.078,3.817-2.949,5.457
			C37.772,45.311,38.84,47.156,39.882,48.893z"/>
		<path clip-path="url(#SVGID_4_)" fill="#F6E89A" d="M38.471,35.991c-1.394-2-2.761-4.982-4.039-7.423
			c1.423-2.476,2.872-4.915,4.33-7.31c2.694-0.071,5.457-0.11,8.238-0.136c1.354,2.396,2.758,4.86,4.167,7.36
			c-1.413,2.503-2.83,5.509-4.245,7.509C44.093,35.991,41.264,35.991,38.471,35.991z"/>
		<path clip-path="url(#SVGID_4_)" fill="#8D4520" d="M46.678,38.022v-0.031h-3.994h-4.006v0.031c-1,0-1.499-0.378-1.852-1.013
			c-1.584-2.85-2.965-5.295-4.114-7.49c-0.317-0.605-0.33-1.328,0.011-1.921c1.463-2.544,2.916-5.022,4.344-7.366
			c0.352-0.58,0.97-1.01,1.649-1.027c2.569-0.068,5.346-0.213,8.266-0.213c0.006,0,0.013,0,0.019,0c0.721,0,1.387,0.457,1.741,1.086
			l4.168,7.422c0.344,0.61,0.344,1.373-0.001,1.983c-1.412,2.502-2.951,5.012-4.365,7.526
			C48.188,37.639,47.678,38.022,46.678,38.022z M42.683,33.991h3.068c1.04-2,2.08-3.665,3.118-5.505l-3.031-5.359
			c-2.064,0.023-4.052,0.065-5.934,0.11c-1.051,1.74-2.12,3.522-3.19,5.371c0.867,1.638,1.835,3.383,2.934,5.383H42.683z"/>
		<path clip-path="url(#SVGID_4_)" fill="#F6E89A" d="M40.155,9.04c-0.822-1.438-1.429-2.49-1.778-3.085
			c1.781-0.824,3.611-1.084,5.393-0.566c1.909-0.026,3.828-0.048,5.748-0.062c0.517-0.702,1.316-0.749,2.317-0.19
			c-1.313,0.601-2.749,1.822-4.216,3.436C45.074,8.679,42.573,8.833,40.155,9.04z"/>
		<path clip-path="url(#SVGID_4_)" fill="#8D4520" d="M40.154,11.04c-0.713,0-1.377-0.381-1.735-1.008
			C37.602,8.603,37,7.56,36.652,6.969c-0.285-0.486-0.352-1.071-0.185-1.61c0.169-0.539,0.557-0.982,1.069-1.219
			c2.198-1.017,4.412-1.276,6.483-0.755c1.565-0.021,3.138-0.039,4.71-0.052c1.101-0.765,2.584-0.776,4.078,0.058
			c0.658,0.367,1.054,1.073,1.023,1.826c-0.03,0.753-0.481,1.426-1.166,1.739c-0.684,0.312-1.857,1.079-3.568,2.962
			c-0.359,0.396-0.862,0.63-1.396,0.652c-2.566,0.107-5.048,0.263-7.376,0.463C40.268,11.038,40.212,11.04,40.154,11.04z"/>
		<path clip-path="url(#SVGID_4_)" fill="#F6E89A" d="M50.958,58.12c-1.411-2.201-2.844-4.579-4.271-7.01
			c1.356-2.405,2.582-4.616,3.991-7.119c2.826,0,6.183,0.004,9,0c1.4,2.5,2.443,4.699,3.788,7.103
			c-1.431,2.432-2.871,4.816-4.29,7.021C56.444,58.151,53.691,58.152,50.958,58.12z"/>
		<path clip-path="url(#SVGID_4_)" fill="#8D4520" d="M59.678,41.991c0.724,0,1.038,0.104,1.393,0.735l4.141,7.391
			c0.348,0.62,0.339,1.378-0.021,1.991c-1.671,2.839-3.047,5.092-4.332,7.088c-0.362,0.564-0.984,0.908-1.654,0.918
			c-1.442,0.02-2.891,0.029-4.338,0.029c-1.312,0-2.623-0.008-3.931-0.023c-0.673-0.008-1.297-0.354-1.66-0.921
			c-1.27-1.979-2.64-4.227-4.313-7.076c-0.361-0.614-0.367-1.374-0.018-1.995l4.169-7.4c0.355-0.629,0.842-0.736,1.565-0.736H59.678
			z M52.063,56.131c1.999,0.02,4.008,0.017,6.008-0.004c0.938-1.481,1.941-3.127,3.087-5.059l-2.48-5.076c-2.04,0.003-4.955,0-7,0
			l-2.683,5.097C50.138,53.02,51.137,54.661,52.063,56.131z"/>
		<path clip-path="url(#SVGID_4_)" fill="#F6E89A" d="M50.856,28.605c-1.407-2.502-2.813-4.991-4.165-7.388
			c1.429-2.424,2.574-5.045,3.986-7.227c2.729-0.034,6.274-0.038,9,0c1.42,2.183,2.349,4.817,3.779,7.241
			c-1.341,2.395-2.732,4.881-4.133,7.379C56.507,28.605,53.68,28.603,50.856,28.605z"/>
		<path clip-path="url(#SVGID_4_)" fill="#8D4520" d="M50.678,30.991c-0.723,0-1.211-0.777-1.565-1.407
			c-1.311-2.332-2.621-4.653-3.889-6.898l-0.274-0.485c-0.35-0.62-0.344-1.383,0.018-1.996c1.678-2.848,3.051-5.088,4.32-7.048
			c0.363-0.56,0.978-0.903,1.646-0.911c2.754-0.034,5.522-0.031,8.271,0.007c0.664,0.009,1.277,0.35,1.639,0.907
			c1.263,1.942,2.641,4.184,4.336,7.056c0.361,0.612,0.37,1.374,0.023,1.995l-4.624,8.253c-0.183,0.326-0.527,0.528-0.901,0.528h-1
			c-2.111-0.005-3.884,0-6,0H50.678 M57.678,26.991l3.472-5.73c-1.156-1.941-2.548-3.822-3.472-5.27c-1.996-0.019-4-0.018-6,0
			c-0.924,1.454-1.532,3.325-2.677,5.25c0.991,1.755,1.658,3.939,2.677,5.75H57.678"/>
		<path clip-path="url(#SVGID_4_)" fill="#F6E89A" d="M50.965,14.246c-1.318-2.144-2.56-4.067-3.633-5.586
			c1.47-1.627,2.913-2.869,4.24-3.489c2.318-0.049,4.651-0.05,6.97-0.002c1.32,0.623,2.767,1.861,4.24,3.493
			c-1.071,1.521-2.306,3.447-3.614,5.591C56.441,14.214,53.692,14.212,50.965,14.246z"/>
		<path clip-path="url(#SVGID_4_)" fill="#8D4520" d="M50.678,15.991c-0.694,0-1.052-0.106-1.416-0.697
			c-1.374-2.233-2.573-4.077-3.564-5.48c-0.539-0.764-0.477-1.8,0.149-2.494c1.769-1.958,3.364-3.253,4.878-3.96
			c0.252-0.118,0.526-0.183,0.805-0.188c2.346-0.048,4.707-0.05,7.053-0.002c0.281,0.006,0.559,0.071,0.813,0.191
			c1.496,0.706,3.135,2.038,4.871,3.961c0.626,0.694,0.688,1.728,0.15,2.493c-0.975,1.383-2.166,3.227-3.542,5.48
			c-0.363,0.596-1.501,0.696-2.197,0.696H50.678z M54.82,12.222c1.08,0,2.16,0.006,3.238,0.017c0.78-1.261,1.501-2.386,2.154-3.364
			c-0.925-0.894-1.647-1.414-2.177-1.716c-1.982-0.033-3.977-0.034-5.961,0.002c-0.525,0.298-1.246,0.814-2.172,1.71
			c0.66,0.984,1.385,2.108,2.168,3.363C52.986,12.226,53.903,12.222,54.82,12.222z"/>
		<path clip-path="url(#SVGID_4_)" fill="#F6E89A" d="M63.402,50.981c-1.346-2.405-2.742-4.927-4.143-7.426
			c1.416-2.506,2.83-4.564,4.237-7.564c2.813,0,5.624,0,8.39,0c1.383,3,2.74,5.029,4.014,7.469c-1.405,2.474-2.839,4.95-4.288,7.355
			C68.93,50.887,66.18,50.951,63.402,50.981z"/>
		<path clip-path="url(#SVGID_4_)" fill="#8D4520" d="M63.402,52.991c-0.724,0-1.392-0.395-1.745-1.028l-4.143-7.397
			c-0.341-0.609-0.34-1.355,0.004-1.963c1.415-2.503,2.827-5.047,4.233-7.558c0.354-0.631,1.021-1.054,1.744-1.054h8.391
			c0.727,0,1.397,0.427,1.75,1.063c1.6,2.891,2.882,5.283,4.037,7.495c0.313,0.603,0.301,1.331-0.034,1.922
			c-1.479,2.604-2.931,5.092-4.314,7.388c-0.352,0.584-0.978,0.956-1.66,0.974c-2.692,0.072-5.453,0.158-8.241,0.158
			C63.417,52.991,63.409,52.991,63.402,52.991z M61.555,43.559l3.012,5.393c1.987-0.026,3.958-0.054,5.896-0.101
			c1.023-1.714,2.082-3.553,3.158-5.436c-0.864-1.638-1.812-3.425-2.915-5.425h-6.037C63.634,39.991,62.595,41.715,61.555,43.559z"
			/>
		<path clip-path="url(#SVGID_4_)" fill="#F6E89A" d="M63.497,35.991c-1.408-2-2.822-4.996-4.239-7.499
			c1.4-2.497,2.794-4.967,4.135-7.36c2.771,0.034,5.518,0.094,8.193,0.17c1.452,2.394,2.89,4.821,4.299,7.291
			c-1.266,2.432-2.618,5.398-3.998,7.398C69.119,35.991,66.31,35.991,63.497,35.991z"/>
		<path clip-path="url(#SVGID_4_)" fill="#8D4520" d="M71.678,38.022v-0.031h-8.181c-0.724,0-1.391-0.36-1.744-0.991
			c-1.407-2.509-2.82-5.007-4.235-7.508c-0.345-0.609-0.347-1.346-0.004-1.956l4.134-7.37c0.359-0.639,1.05-1.024,1.77-1.02
			c2.781,0.034,5.539,0.088,8.225,0.164c0.679,0.02,1.302,0.382,1.653,0.962c1.391,2.293,2.846,4.771,4.326,7.364
			c0.337,0.591,0.351,1.312,0.037,1.915c-1.144,2.196-2.525,4.554-4.126,7.453C73.181,37.642,72.678,38.022,71.678,38.022z
			 M64.668,33.991h6.037c1.102-2,2.044-3.725,2.899-5.352c-1.077-1.874-2.138-3.665-3.166-5.376c-1.934-0.05-3.9-0.08-5.883-0.108
			l-3.003,5.329C62.594,30.326,63.633,31.991,64.668,33.991z"/>
		<path clip-path="url(#SVGID_4_)" fill="#F6E89A" d="M62.714,8.584c-1.472-1.617-2.917-2.844-4.233-3.445
			c0.999-0.559,1.794-0.511,2.317,0.193c1.92,0.016,3.835,0.038,5.744,0.066c1.775-0.518,3.608-0.256,5.39,0.573
			c-0.347,0.598-0.95,1.652-1.763,3.092C67.755,8.852,65.257,8.693,62.714,8.584z"/>
		<path clip-path="url(#SVGID_4_)" fill="#8D4520" d="M70.17,11.062c-0.059,0-0.116-0.003-0.175-0.008
			c-2.332-0.203-4.811-0.362-7.367-0.473c-0.533-0.022-1.034-0.258-1.394-0.652c-1.717-1.887-2.897-2.657-3.585-2.972
			c-0.686-0.313-1.137-0.985-1.167-1.738c-0.031-0.753,0.364-1.459,1.022-1.827c1.493-0.834,2.975-0.821,4.079-0.054
			c1.572,0.014,3.142,0.033,4.706,0.055c2.07-0.521,4.287-0.26,6.485,0.764c0.51,0.237,0.896,0.678,1.064,1.213
			c0.168,0.536,0.104,1.118-0.178,1.604c-0.345,0.594-0.944,1.641-1.751,3.071C71.554,10.678,70.886,11.062,70.17,11.062z"/>
		<path clip-path="url(#SVGID_4_)" fill="#F6E89A" d="M74.652,57.475c-0.965-1.974-2.103-4.188-3.34-6.523
			c1.448-2.407,2.884-4.867,4.29-7.341c2.683-0.035,5.285-0.085,7.697-0.162c1.081,2.354,2.017,4.607,2.762,6.685
			c-1.364,2.296-2.821,4.54-4.335,6.653C79.518,57.063,77.138,57.292,74.652,57.475z"/>
		<path clip-path="url(#SVGID_4_)" fill="#8D4520" d="M74.651,59.475c-0.759,0-1.459-0.432-1.796-1.122
			c-0.915-1.871-2.028-4.046-3.31-6.465c-0.328-0.62-0.308-1.366,0.054-1.968c1.399-2.326,2.834-4.781,4.266-7.298
			c0.351-0.617,1.002-1.002,1.712-1.012c2.984-0.039,5.49-0.092,7.66-0.161c0.763-0.042,1.544,0.433,1.881,1.164
			c1.132,2.465,2.083,4.768,2.827,6.846c0.201,0.561,0.142,1.183-0.163,1.695c-1.42,2.39-2.91,4.677-4.429,6.797
			c-0.324,0.453-0.823,0.75-1.377,0.819c-2.183,0.274-4.597,0.509-7.177,0.699C74.75,59.473,74.7,59.475,74.651,59.475z
			 M73.606,51.014c0.824,1.568,1.573,3.028,2.239,4.362c1.678-0.137,3.271-0.294,4.761-0.469c1.105-1.579,2.194-3.25,3.248-4.984
			c-0.521-1.385-1.132-2.869-1.828-4.437c-1.571,0.043-3.308,0.079-5.253,0.107C75.712,47.447,74.651,49.263,73.606,51.014z"/>
		<path clip-path="url(#SVGID_4_)" fill="#F6E89A" d="M75.592,28.71c-1.408-2.472-2.845-4.925-4.296-7.325
			c1.23-2.323,2.358-4.522,3.311-6.476c2.48,0.189,4.85,0.421,7.052,0.704c1.521,2.098,2.982,4.329,4.353,6.619
			c-0.737,2.061-1.657,4.305-2.732,6.651C80.869,28.802,78.271,28.749,75.592,28.71z"/>
		<path clip-path="url(#SVGID_4_)" fill="#8D4520" d="M83.28,30.991c-0.022,0-0.045,0-0.068,0c-2.153,0-4.584-0.182-7.649-0.227
			c-0.708-0.011-1.357-0.422-1.708-1.037c-1.432-2.512-2.868-4.975-4.271-7.294c-0.363-0.602-0.385-1.357-0.056-1.978
			c1.273-2.404,2.378-4.567,3.281-6.419c0.359-0.736,1.142-1.177,1.95-1.119c2.612,0.199,5.02,0.44,7.154,0.714
			c0.547,0.07,1.04,0.363,1.364,0.809c1.521,2.097,3.018,4.373,4.449,6.766c0.308,0.513,0.369,1.137,0.167,1.7
			c-0.764,2.134-1.704,4.478-2.796,6.863C84.772,30.483,84.06,30.991,83.28,30.991z M76.762,26.727
			c1.979,0.032,3.69,0.07,5.243,0.115c0.672-1.522,1.275-2.993,1.799-4.397c-1.061-1.732-2.152-3.394-3.26-4.956
			c-1.466-0.176-3.054-0.336-4.743-0.479c-0.656,1.316-1.396,2.758-2.21,4.308C74.638,23.066,75.7,24.878,76.762,26.727z"/>
		<path clip-path="url(#SVGID_4_)" fill="#8D4520" d="M81.66,17.613c-0.084,0-0.17-0.005-0.255-0.017
			c-2.103-0.27-4.441-0.503-6.949-0.693c-0.592-0.045-1.133-0.35-1.477-0.833c-1.656-2.322-3.129-4.144-4.501-5.571
			c-0.615-0.64-0.735-1.607-0.296-2.377c0.837-1.469,1.461-2.545,1.828-3.164c0.399-0.671,1.159-1.043,1.927-0.968
			c2.124,0.221,4.236,0.488,6.277,0.795c0.229,0.034,0.448,0.108,0.651,0.217c1.902,1.025,3.769,2.51,5.706,4.54
			c0.464,0.486,0.652,1.174,0.502,1.829c-0.329,1.429-0.848,3.092-1.542,4.944C83.236,17.103,82.484,17.613,81.66,17.613z
			 M75.687,12.988c1.621,0.132,3.169,0.282,4.627,0.448c0.229-0.678,0.428-1.315,0.594-1.912c-1.254-1.221-2.455-2.155-3.644-2.837
			c-1.459-0.215-2.954-0.409-4.462-0.58c-0.129,0.223-0.269,0.465-0.42,0.728C73.428,10.015,74.519,11.388,75.687,12.988z"/>
		<path clip-path="url(#SVGID_4_)" fill="#F6E89A" d="M86.113,50.026c-0.747-2.079-1.681-4.335-2.766-6.692
			c1.329-2.431,2.578-4.876,3.673-7.267c2.206,0.004,4.138,0.01,5.611,0.018c0.745,2.251,1.274,4.406,1.596,6.396
			c-0.663,2.21-1.57,4.477-2.663,6.705C90.088,49.531,88.222,49.805,86.113,50.026z"/>
		<path clip-path="url(#SVGID_4_)" fill="#8D4520" d="M86.112,52.026c-0.836,0-1.594-0.523-1.881-1.323
			c-0.724-2.014-1.633-4.212-2.7-6.533c-0.265-0.574-0.242-1.24,0.062-1.796c1.387-2.536,2.602-4.977,3.609-7.178
			c0.325-0.711,1.036-1.205,1.818-1.205c0.001,0,0.002,0,0.004,0c2.208,0,4.143,0.048,5.618,0.056
			c0.858,0.005,1.618,0.576,1.888,1.39c0.763,2.305,1.325,4.57,1.672,6.717c0.048,0.298,0.028,0.608-0.059,0.898
			c-0.686,2.283-1.622,4.644-2.783,7.013c-0.265,0.539-0.757,0.932-1.341,1.068c-1.481,0.346-3.345,0.635-5.697,0.882
			C86.252,52.022,86.181,52.026,86.112,52.026z M85.58,43.412c0.691,1.542,1.314,3.03,1.86,4.448
			c1.034-0.131,1.952-0.273,2.745-0.426c0.803-1.724,1.47-3.429,1.991-5.088c-0.242-1.376-0.582-2.806-1.016-4.269
			c-0.863-0.003-1.827-0.006-2.868-0.008C87.49,39.762,86.581,41.551,85.58,43.412z"/>
		<path clip-path="url(#SVGID_4_)" fill="#F6E89A" d="M87.02,36.067c-1.109-2.396-2.365-4.842-3.703-7.266
			c1.07-2.345,1.99-4.584,2.721-6.642c2.103,0.228,3.96,0.515,5.439,0.869c1.106,2.22,2.026,4.481,2.707,6.694
			c-0.31,1.974-0.823,4.117-1.553,6.361C91.16,36.078,89.226,36.071,87.02,36.067z"/>
		<path clip-path="url(#SVGID_4_)" fill="#8D4520" d="M92.632,37.991c-0.003,0-0.006,0-0.01,0c-1.47,0-3.401,0.033-5.605,0.029
			c-0.777-0.001-1.484-0.431-1.811-1.136c-1.043-2.252-2.268-4.643-3.64-7.128c-0.306-0.555-0.331-1.216-0.068-1.791
			c1.06-2.321,1.952-4.498,2.655-6.478c0.31-0.873,1.18-1.415,2.1-1.318c2.277,0.246,4.191,0.554,5.69,0.913
			c0.575,0.139,1.061,0.524,1.324,1.053c1.171,2.351,2.123,4.705,2.828,6.999c0.09,0.29,0.111,0.598,0.064,0.898
			c-0.335,2.137-0.882,4.334-1.626,6.623C94.265,37.48,93.498,37.991,92.632,37.991z M88.29,34.07
			c1.04,0.002,2.003,0.005,2.866,0.009c0.418-1.441,0.745-2.851,0.978-4.209c-0.537-1.67-1.218-3.378-2.031-5.095
			c-0.801-0.16-1.715-0.308-2.734-0.442c-0.531,1.391-1.14,2.857-1.818,4.383C86.548,30.556,87.466,32.349,88.29,34.07z"/>
		<path clip-path="url(#SVGID_4_)" fill="#8D4520" d="M86.034,22.134c-1.372-2.288-2.833-4.515-4.356-6.606
			c0.675-1.808,1.153-3.371,1.45-4.668c1.924,0.398,3.686,0.845,5.228,1.35c1.439,1.755,2.718,3.711,3.779,5.76
			c-0.094,1.495-0.291,3.17-0.662,5.035C89.995,22.649,88.137,22.364,86.034,22.134z"/>
		<path clip-path="url(#SVGID_4_)" fill="#F6E89A" d="M83.128,10.859c-1.626-1.693-3.364-3.148-5.216-4.131
			c0.122-0.688,0.033-1.03-0.208-1.098c1.868,0.049,3.721,0.102,5.564,0.159c1.975,0.569,3.709,1.692,5.208,3.108
			c-0.018,0.989-0.019,2.058-0.121,3.311C86.812,11.704,85.053,11.259,83.128,10.859z"/>
		<path clip-path="url(#SVGID_4_)" fill="#8D4520" d="M88.355,14.209c-0.209,0-0.419-0.032-0.622-0.1
			c-1.398-0.457-3.084-0.892-5.012-1.292c-0.396-0.082-0.757-0.281-1.036-0.573c-1.646-1.713-3.187-2.939-4.712-3.749
			c-0.719-0.382-1.13-1.158-1.053-1.958c-0.183-0.36-0.259-0.777-0.194-1.204c0.15-0.998,0.98-1.745,2.03-1.701
			c1.871,0.049,3.728,0.102,5.574,0.159c0.166,0.005,0.332,0.031,0.491,0.077c2.141,0.617,4.169,1.82,6.027,3.576
			c0.409,0.387,0.637,0.927,0.627,1.489l-0.008,0.454c-0.013,0.87-0.027,1.856-0.12,2.984c-0.05,0.61-0.376,1.164-0.887,1.503
			C89.131,14.096,88.745,14.209,88.355,14.209z M84.135,9.028c0.687,0.148,1.337,0.3,1.956,0.455
			c-1.016-0.788-2.07-1.358-3.149-1.702c-0.043-0.002-0.086-0.003-0.128-0.004C83.252,8.166,83.691,8.583,84.135,9.028z"/>
		<path clip-path="url(#SVGID_4_)" fill="#F6E89A" d="M92.105,54.435c-0.107-1.52-0.325-3.222-0.721-5.113
			c1.107-2.229,2.038-4.5,2.725-6.717c1.028-0.22,1.529-0.485,1.363-0.791c-0.175,1.701-0.495,3.22-0.827,4.587
			c0.263,2.004,0.187,4.104-0.229,6.169C94.094,53.283,93.283,53.9,92.105,54.435z"/>
		<path clip-path="url(#SVGID_4_)" fill="#8D4520" d="M92.105,56.435c-0.355,0-0.709-0.095-1.022-0.281
			c-0.563-0.335-0.927-0.925-0.973-1.578c-0.111-1.58-0.342-3.21-0.684-4.845c-0.092-0.439-0.033-0.896,0.167-1.299
			c1.088-2.191,1.965-4.351,2.605-6.419c0.214-0.691,0.784-1.213,1.492-1.364c0.069-0.015,0.131-0.028,0.187-0.042
			c0.288-0.381,0.711-0.655,1.202-0.754c0.852-0.171,1.731,0.235,2.15,1.007c0.304,0.56,0.354,1.188,0.163,1.762
			c-0.187,1.511-0.47,2.843-0.72,3.896c0.237,2.121,0.138,4.288-0.297,6.448c-0.03,0.147-0.076,0.291-0.139,0.429
			c-0.52,1.151-1.601,2.088-3.306,2.862C92.669,56.376,92.387,56.435,92.105,56.435z"/>
		<path clip-path="url(#SVGID_4_)" fill="#8D4520" d="M94.109,42.605c-0.339-1.997-0.881-4.158-1.642-6.416
			c0.751-2.253,1.285-4.406,1.614-6.392c1.03,0.23,1.533,0.506,1.375,0.826c0.018,2.013-0.244,3.905-0.708,5.608
			c0.462,1.694,0.733,3.577,0.724,5.584C95.638,42.121,95.138,42.385,94.109,42.605z"/>
		<path clip-path="url(#SVGID_4_)" fill="#F6E89A" d="M17.738,62.472c-1.002-1.71-1.681-3.654-1.948-5.697
			c0.119-1.256,0.038-2.493-0.059-3.847c0.353,0.713,1.189,1.336,2.391,1.873c1.107,2.049,2.422,4.001,3.892,5.753
			c-0.104,1.256-0.101,2.321-0.108,3.301C20.368,63.432,18.967,62.972,17.738,62.472z"/>
		<path clip-path="url(#SVGID_4_)" fill="#8D4520" d="M21.905,65.854c-0.178,0-0.355-0.023-0.53-0.071
			c-1.651-0.454-3.128-0.945-4.391-1.459c-0.407-0.166-0.749-0.462-0.972-0.842c-1.147-1.957-1.909-4.187-2.206-6.448
			c-0.019-0.149-0.022-0.299-0.008-0.448c0.1-1.054,0.037-2.122-0.063-3.516c-0.068-0.953,0.548-1.822,1.471-2.072
			c0.926-0.254,1.894,0.187,2.317,1.043c0.053,0.107,0.411,0.485,1.414,0.934c0.402,0.181,0.734,0.488,0.943,0.876
			c1.057,1.956,2.289,3.778,3.664,5.418c0.339,0.403,0.505,0.926,0.461,1.451c-0.089,1.068-0.095,1.992-0.1,2.886l-0.002,0.263
			c-0.004,0.622-0.298,1.206-0.793,1.581C22.761,65.715,22.336,65.854,21.905,65.854z M19.139,60.872
			c0.252,0.095,0.513,0.188,0.781,0.281c-0.542-0.682-1.063-1.388-1.561-2.117C18.574,59.668,18.835,60.284,19.139,60.872z"/>
		<path clip-path="url(#SVGID_4_)" fill="#F6E89A" d="M27.016,66.946c-1.98-0.566-3.726-1.676-5.245-3.081
			c0.011-0.985,0.007-2.048,0.103-3.296c1.557,0.499,3.334,0.939,5.269,1.333c1.642,1.685,3.387,3.128,5.243,4.106
			c-0.125,0.685-0.034,1.022,0.206,1.092C30.723,67.052,28.864,67,27.016,66.946z"/>
		<path clip-path="url(#SVGID_4_)" fill="#8D4520" d="M32.594,69.1c-0.018,0-0.035,0-0.052-0.001
			c-1.872-0.048-3.733-0.1-5.584-0.153c-0.166-0.005-0.331-0.03-0.491-0.076c-2.143-0.612-4.179-1.802-6.054-3.535
			c-0.414-0.384-0.648-0.926-0.642-1.49l0.004-0.4c0.008-0.882,0.017-1.88,0.104-3.027c0.047-0.609,0.37-1.165,0.878-1.506
			c0.509-0.342,1.145-0.434,1.726-0.245c1.411,0.452,3.112,0.882,5.058,1.277c0.393,0.08,0.754,0.276,1.034,0.564
			c1.662,1.706,3.214,2.927,4.742,3.732c0.713,0.375,1.124,1.136,1.063,1.926c0.149,0.279,0.232,0.598,0.232,0.936
			c0,1.104-0.895,2-2,2C32.606,69.1,32.599,69.1,32.594,69.1z M27.339,64.955c0.037,0.001,0.074,0.002,0.111,0.003
			c-0.432-0.38-0.865-0.786-1.303-1.22c-0.677-0.144-1.327-0.292-1.947-0.444C25.215,64.06,26.266,64.616,27.339,64.955z"/>
		<path clip-path="url(#SVGID_4_)" fill="#8D4520" d="M21.874,60.569c-1.463-1.749-2.769-3.699-3.859-5.743
			c0.085-1.5,0.271-3.176,0.639-5.049c1.503,0.353,3.387,0.638,5.518,0.864c1.396,2.288,2.88,4.515,4.42,6.602
			c-0.677,1.808-1.153,3.366-1.447,4.659C25.208,61.509,23.431,61.067,21.874,60.569z"/>
		<path clip-path="url(#SVGID_4_)" fill="#F6E89A" d="M32.38,65.974c-1.853-0.989-3.595-2.444-5.234-4.134
			c0.3-1.302,0.782-2.868,1.465-4.685c2.222,0.278,4.607,0.506,7.103,0.689c1.53,2.135,3.097,4.125,4.689,5.775
			c-0.836,1.451-1.458,2.517-1.824,3.125C36.434,66.526,34.36,66.266,32.38,65.974z"/>
		<path clip-path="url(#SVGID_4_)" fill="#8D4520" d="M38.578,68.745c-0.067,0-0.135-0.003-0.203-0.011
			c-2.11-0.215-4.226-0.479-6.287-0.782c-0.228-0.033-0.447-0.105-0.649-0.214c-1.892-1.01-3.766-2.483-5.729-4.506
			c-0.473-0.486-0.666-1.18-0.514-1.842c0.331-1.435,0.85-3.096,1.542-4.938c0.325-0.867,1.192-1.401,2.121-1.281
			c2.108,0.264,4.463,0.492,7,0.68c0.592,0.043,1.134,0.347,1.479,0.829c1.66,2.317,3.134,4.133,4.503,5.552
			c0.618,0.642,0.738,1.614,0.294,2.387c-0.845,1.467-1.474,2.544-1.844,3.158C39.928,68.382,39.274,68.745,38.578,68.745z
			 M33.027,64.047c1.475,0.214,2.977,0.405,4.483,0.573c0.13-0.222,0.27-0.464,0.423-0.726c-1.04-1.172-2.13-2.535-3.296-4.126
			c-1.645-0.13-3.211-0.277-4.682-0.44c-0.228,0.671-0.426,1.306-0.591,1.899C30.635,62.445,31.842,63.374,33.027,64.047z"/>
		<path clip-path="url(#SVGID_4_)" fill="#F6E89A" d="M43.769,67.322c-1.781,0.517-3.61,0.256-5.393-0.567
			c0.351-0.597,0.957-1.647,1.778-3.084c2.416,0.205,4.919,0.363,7.463,0.466c1.468,1.614,2.901,2.834,4.216,3.437
			c-1.001,0.56-1.797,0.513-2.317-0.19C47.596,67.369,45.679,67.349,43.769,67.322z"/>
		<path clip-path="url(#SVGID_4_)" fill="#8D4520" d="M50.606,69.956c-0.69,0-1.33-0.201-1.875-0.579
			c-1.574-0.013-3.146-0.03-4.711-0.051c-2.069,0.517-4.282,0.261-6.482-0.756c-0.513-0.236-0.901-0.679-1.069-1.218
			c-0.169-0.539-0.103-1.124,0.184-1.611c0.349-0.592,0.951-1.636,1.767-3.063c0.387-0.677,1.132-1.067,1.905-1.001
			c2.427,0.206,4.908,0.361,7.374,0.461c0.535,0.021,1.039,0.257,1.399,0.652c1.711,1.882,2.886,2.65,3.569,2.964
			c0.684,0.314,1.136,0.986,1.165,1.738c0.03,0.753-0.365,1.458-1.023,1.826C52.054,69.741,51.312,69.956,50.606,69.956z"/>
		<path clip-path="url(#SVGID_4_)" fill="#F6E89A" d="M51.772,67.544c-1.317-0.619-2.756-1.856-4.222-3.483
			c1.082-1.521,2.328-3.448,3.649-5.593c2.73,0.031,5.479,0.026,8.204-0.013c1.305,2.142,2.533,4.065,3.599,5.584
			c-1.478,1.631-2.931,2.875-4.26,3.5C56.426,67.59,54.091,67.59,51.772,67.544z"/>
		<path clip-path="url(#SVGID_4_)" fill="#8D4520" d="M55.17,69.578c-1.147,0-2.294-0.012-3.438-0.034
			c-0.28-0.006-0.557-0.07-0.811-0.189c-1.51-0.71-3.099-2.004-4.857-3.955c-0.627-0.696-0.687-1.735-0.144-2.498
			c0.981-1.379,2.185-3.462,3.576-5.721c0.364-0.592,1.01-1.189,1.703-1.189c0.008,0,0.016,0,0.022,0c2.715,1,5.444,1,8.153,0
			c0.009,0,0.019,0,0.028,0c0.697,0,1.345,0.595,1.708,1.191c1.374,2.256,2.56,4.214,3.528,5.592
			c0.536,0.765,0.472,1.857-0.155,2.549c-1.746,1.928-3.392,3.291-4.891,3.996c-0.253,0.119-0.528,0.198-0.808,0.205
			C57.585,69.55,56.377,69.578,55.17,69.578z M52.276,65.553c1.983,0.034,3.979,0.034,5.962-0.004
			c0.532-0.302,1.261-0.824,2.196-1.726c-0.648-0.975-1.364-2.096-2.141-3.354c-1.993,0.022-3.994,0.026-5.987,0.01
			c-0.792,1.267-1.521,2.396-2.183,3.376C51.04,64.741,51.754,65.255,52.276,65.553z"/>
		<path clip-path="url(#SVGID_4_)" fill="#F6E89A" d="M60.798,67.378c-0.521,0.706-1.319,0.754-2.317,0.193
			c1.315-0.603,2.762-1.826,4.233-3.445c2.543-0.107,5.041-0.269,7.455-0.478c0.813,1.438,1.414,2.493,1.763,3.091
			c-1.782,0.829-3.614,1.09-5.39,0.574C64.633,67.342,62.717,67.363,60.798,67.378z"/>
		<path clip-path="url(#SVGID_4_)" fill="#8D4520" d="M59.705,69.954c-0.708,0-1.449-0.215-2.204-0.639
			c-0.656-0.369-1.05-1.074-1.019-1.826c0.03-0.752,0.481-1.423,1.165-1.736c0.691-0.316,1.875-1.09,3.586-2.972
			c0.359-0.396,0.862-0.631,1.396-0.653c2.483-0.105,4.961-0.264,7.366-0.472c0.786-0.064,1.528,0.326,1.914,1.008
			c0.807,1.428,1.403,2.475,1.749,3.067c0.283,0.486,0.35,1.069,0.181,1.605c-0.168,0.537-0.555,0.979-1.064,1.216
			c-2.196,1.022-4.412,1.286-6.483,0.765c-1.565,0.022-3.135,0.041-4.706,0.055C61.04,69.752,60.397,69.954,59.705,69.954z"/>
		<path clip-path="url(#SVGID_4_)" fill="#F6E89A" d="M72.002,66.702c-0.351-0.614-0.956-1.683-1.773-3.131
			c1.598-1.66,3.167-3.654,4.693-5.796c2.47-0.191,4.831-0.427,7.018-0.716c0.667,1.81,1.139,3.376,1.431,4.678
			c-1.62,1.702-3.354,3.168-5.202,4.172C76.201,66.21,74.138,66.475,72.002,66.702z"/>
		<path clip-path="url(#SVGID_4_)" fill="#8D4520" d="M72.001,68.702c-0.711,0-1.376-0.38-1.734-1.007
			c-0.354-0.616-0.96-1.688-1.78-3.141c-0.434-0.77-0.312-1.733,0.301-2.37c1.391-1.445,2.864-3.267,4.506-5.57
			c0.344-0.482,0.884-0.787,1.475-0.833c2.534-0.196,4.859-0.434,6.91-0.704c0.926-0.122,1.815,0.414,2.139,1.291
			c0.677,1.837,1.184,3.496,1.505,4.932c0.146,0.651-0.042,1.333-0.503,1.816c-1.932,2.029-3.795,3.518-5.696,4.551
			c-0.203,0.11-0.424,0.185-0.651,0.219c-1.979,0.303-4.084,0.573-6.257,0.805C72.142,68.698,72.072,68.702,72.001,68.702z
			 M72.686,63.856c0.145,0.256,0.279,0.494,0.403,0.713c1.523-0.176,3.004-0.371,4.419-0.583c1.192-0.688,2.396-1.629,3.65-2.854
			c-0.16-0.592-0.352-1.223-0.573-1.889c-1.429,0.166-2.962,0.317-4.583,0.452C74.839,61.291,73.742,62.667,72.686,63.856z"/>
		<path clip-path="url(#SVGID_4_)" fill="#F6E89A" d="M77.704,67.08c0.241-0.068,0.331-0.409,0.208-1.098
			c1.852-0.983,3.588-2.438,5.216-4.131c1.924-0.399,3.686-0.846,5.228-1.349c0.104,1.253,0.105,2.321,0.121,3.311
			c-1.499,1.415-3.233,2.534-5.208,3.106C81.427,66.977,79.573,67.031,77.704,67.08z"/>
		<path clip-path="url(#SVGID_4_)" fill="#8D4520" d="M77.703,68.991c-0.985,0-1.827-0.675-1.977-1.655
			c-0.064-0.427,0.011-0.823,0.194-1.185c-0.077-0.8,0.334-1.565,1.053-1.947c1.52-0.807,3.062-2.028,4.713-3.745
			c0.279-0.29,0.641-0.486,1.035-0.569c1.923-0.399,3.609-0.833,5.014-1.291c0.581-0.189,1.218-0.102,1.727,0.236
			c0.509,0.338,0.836,0.891,0.887,1.5c0.096,1.153,0.109,2.158,0.122,3.045l0.006,0.4c0.009,0.561-0.219,1.101-0.627,1.485
			c-1.854,1.75-3.88,2.952-6.024,3.573c-0.161,0.047-0.327,0.029-0.494,0.034c-1.845,0.058-3.702,0.116-5.575,0.116
			C77.738,68.991,77.721,68.991,77.703,68.991z M84.134,63.683c-0.443,0.445-0.883,0.861-1.32,1.251
			c0.042-0.002,0.085-0.003,0.127-0.005c1.082-0.346,2.138-0.916,3.152-1.702C85.469,63.383,84.815,63.535,84.134,63.683z"/>
		<path clip-path="url(#SVGID_4_)" fill="#8D4520" d="M83.128,61.852c-0.296-1.298-0.774-2.86-1.45-4.668
			c1.525-2.092,2.983-4.32,4.356-6.607c2.102-0.23,3.961-0.515,5.438-0.87c0.372,1.866,0.567,3.54,0.662,5.036
			c-1.063,2.048-2.34,4.003-3.779,5.761C86.814,61.006,85.051,61.453,83.128,61.852z"/>
		<path clip-path="url(#SVGID_4_)" fill="#F6E89A" d="M94.079,29.771c-0.696-2.218-1.633-4.485-2.752-6.709
			c0.389-1.877,0.596-3.563,0.702-5.071c1.184,0.541,2.004,1.164,2.345,1.877c0.43,2.063,0.521,4.165,0.266,6.174
			c0.322,1.36,0.643,2.868,0.817,4.56C95.616,30.28,95.111,30.004,94.079,29.771z"/>
		<path clip-path="url(#SVGID_4_)" fill="#8D4520" d="M95.458,32.602c-0.118,0-0.237-0.011-0.356-0.032
			c-0.523-0.094-0.973-0.39-1.269-0.801c-0.057-0.015-0.121-0.029-0.193-0.046c-0.695-0.156-1.255-0.672-1.469-1.352
			c-0.655-2.086-1.54-4.242-2.63-6.408c-0.203-0.403-0.264-0.863-0.172-1.305c0.333-1.609,0.551-3.182,0.665-4.807
			c0.046-0.654,0.41-1.244,0.974-1.579c0.564-0.336,1.256-0.373,1.853-0.1c1.69,0.773,2.776,1.7,3.318,2.834
			c0.069,0.145,0.12,0.297,0.153,0.454c0.452,2.173,0.564,4.346,0.335,6.467c0.26,1.118,0.532,2.425,0.713,3.885
			c0.173,0.547,0.133,1.146-0.131,1.678C96.907,32.179,96.207,32.602,95.458,32.602z"/>
		<path clip-path="url(#SVGID_4_)" fill="#F6E89A" d="M92.029,17.991c-1.079-2.049-2.362-4.008-3.813-5.768
			c0.111-1.259,0.114-2.33,0.129-3.315c1.523,0.428,2.913,0.892,4.128,1.398c0.979,1.72,1.629,3.674,1.878,5.718
			c-0.13,1.258-0.063,2.494,0.022,3.845C94.033,19.155,93.212,18.533,92.029,17.991z"/>
		<path clip-path="url(#SVGID_4_)" fill="#8D4520" d="M94.393,21.868c-0.343,0-0.667-0.087-0.949-0.239
			c-0.37-0.193-0.681-0.502-0.875-0.898c-0.002-0.003-0.197-0.382-1.373-0.921c-0.401-0.185-0.73-0.496-0.937-0.887
			c-1.042-1.978-2.248-3.804-3.586-5.428c-0.334-0.404-0.495-0.925-0.449-1.447c0.093-1.048,0.104-1.961,0.117-2.843l0.004-0.326
			c0.01-0.621,0.307-1.202,0.804-1.573c0.498-0.371,1.136-0.49,1.737-0.323c1.649,0.464,3.115,0.96,4.355,1.477
			c0.409,0.171,0.751,0.473,0.97,0.857c1.113,1.957,1.848,4.192,2.125,6.465c0.018,0.148,0.02,0.299,0.004,0.447
			c-0.103,0.994-0.062,2.021,0.012,3.233c0.027,0.131,0.041,0.267,0.041,0.406C96.393,20.973,95.499,21.868,94.393,21.868z
			 M90.291,11.612c0.52,0.665,1.021,1.356,1.499,2.072c-0.202-0.618-0.449-1.218-0.735-1.792
			C90.808,11.799,90.554,11.705,90.291,11.612z"/>
	</g>
	<g>
		<defs>
			<path id="SVGID_11_" d="M87.46,32.938c0.409,13.924-10.841,25.075-24.224,25.435C49.735,58.931,37.783,47.425,37.87,32.757
				C38.015,17.892,50.217,7.836,62.808,8.866C75.46,9.22,86.893,18.986,87.46,32.938z"/>
		</defs>
		<clipPath id="SVGID_6_">
			<use xlink:href="#SVGID_11_"  overflow="visible"/>
		</clipPath>
	</g>
	<path fill="#FFFFFF" d="M48.604,57.743c-0.768,0-1.535-0.293-2.121-0.879c-9.88-9.877-11.292-25.959-3.284-37.408
		c7.874-11.26,23.307-15.521,35.898-9.909c1.514,0.674,2.194,2.448,1.52,3.961c-0.674,1.514-2.449,2.193-3.961,1.519
		c-10.013-4.463-22.283-1.079-28.541,7.868c-6.258,8.948-5.111,22.006,2.61,29.727c1.172,1.171,1.172,3.07,0,4.242
		C50.14,57.45,49.372,57.743,48.604,57.743z"/>
	<path fill="#8D4520" d="M62.893,62.781c-16.109,0-29.215-13.105-29.215-29.215S46.784,4.351,62.893,4.351
		s29.216,13.106,29.216,29.216S79.003,62.781,62.893,62.781z M62.893,10.351c-12.801,0-23.215,10.415-23.215,23.216
		s10.414,23.215,23.215,23.215c12.801,0,23.216-10.414,23.216-23.215S75.694,10.351,62.893,10.351z"/>
	<path fill="#F6E89A" d="M30.696,99.365c0-5.354,14.645-9.782,33.146-9.782c18.501,0,32.854,4.429,32.854,9.782v10
		c0,5.353-14.353,10-32.854,10c-18.502,0-33.146-3.647-33.146-9V99.365z"/>
	<path fill="#702C17" d="M63.843,121.365c-16.213,0-35.146-2.881-35.146-11v-11c0-7.735,17.681-11.782,35.146-11.782
		c17.32,0,34.854,4.047,34.854,11.782v10C98.696,117.243,81.163,121.365,63.843,121.365z M63.843,91.583
		c-20.449,0-31.146,5.066-31.146,7.782v11c0,2.861,11.092,7,31.146,7c19.963,0,30.854-5.285,30.854-8v-10
		C94.696,96.649,84.099,91.583,63.843,91.583z"/>
	<path fill="#F6E89A" d="M71.192,109.167c-2.082,0.13-4.252,0.198-6.496,0.198c-18.502,0-34-4.647-34-10
		c0-5.354,14.645-9.782,33.146-9.782c18.501,0,32.854,4.429,32.854,9.782c0,2.755-3.577,5.324-9.572,7.168"/>
	<path fill="#702C17" d="M64.696,111.365c-17.452,0-36-4.206-36-12c0-7.735,17.681-11.782,35.146-11.782
		c17.32,0,34.854,4.047,34.854,11.782c0,3.729-3.798,6.869-10.984,9.08c-1.056,0.318-2.176-0.268-2.5-1.324
		c-0.324-1.056,0.269-2.175,1.324-2.5c5.637-1.733,8.16-3.889,8.16-5.256c0-2.716-10.597-7.782-30.854-7.782
		c-20.449,0-31.146,5.066-31.146,7.782c0,2.82,12.149,8,32,8c2.16,0,4.304-0.065,6.371-0.194c1.124-0.067,2.053,0.769,2.121,1.871
		c0.068,1.103-0.77,2.053-1.871,2.121C69.167,111.297,66.939,111.365,64.696,111.365z"/>
	<path fill="#F6E89A" d="M44.62,96.491c0,2.485,8.523,4.5,19.039,4.5c10.514,0,19.037-2.015,19.037-4.5v-33.5
		c0,2.485-8.523,3-19.037,3c-10.516,0-19.039-0.515-19.039-3V96.491z"/>
	<path fill="#702C17" d="M63.659,102.991c-3.514,0-21.039-0.313-21.039-6.5v-33.5c0-1.104,0.896-2,2-2
		c0.945,0,1.737,0.655,1.946,1.536c0.922,0.595,4.437,1.464,17.093,1.464c12.655,0,16.169-0.869,17.091-1.464
		c0.209-0.881,1.001-1.536,1.946-1.536c1.104,0,2,0.896,2,2v33.5C84.696,102.678,67.172,102.991,63.659,102.991z M46.62,96.197
		c1.097,1.011,7.007,2.794,17.039,2.794c10.031,0,15.94-1.783,17.037-2.794V66.771c-3.217,0.88-8.614,1.22-17.037,1.22
		c-8.423,0-13.822-0.34-17.039-1.22V96.197z"/>
	<path fill="#FFFFFF" d="M48.695,99.365c-1.085,0-1.977-0.869-1.999-1.959l-0.613-30.03c-0.015-0.745,0.385-1.437,1.038-1.795
		c0.654-0.356,1.451-0.324,2.071,0.09c2.537,1.691,10.957,1.691,15.004,1.691c9.649,0,14.572-1.186,15.611-1.999
		c0.177-0.924,0.989-1.623,1.965-1.623c1.104,0,2,0.896,2,2c0,1.391,0,5.622-19.576,5.622c-5.156,0-10.374-0.102-14.052-1.055
		l0.552,27.017c0.022,1.104-0.854,2.018-1.959,2.041C48.723,99.365,48.709,99.365,48.695,99.365z"/>
	<path fill="#F6E89A" d="M35.696,44.865c0,3.59,11.959,6.5,27.146,6.5c15.187,0,27.854-3.41,27.854-7v14
		c0,3.59-12.666,6.626-27.854,6.626c-15.188,0-27.146-3.036-27.146-6.626V44.865z"/>
	<path fill="#702C17" d="M92.696,44.365v14c0,6.823-19.527,8.626-29.854,8.626c-10.825,0-29.146-1.816-29.146-8.626v-13.5
		c0-1.104-0.092-1.032,1.013-1.032c1.08,0,0.5-0.217,2.986,0.959c2.224,1.033,9.802,4.573,25.147,4.573
		c15.21,0,25.474-4.589,27.401-5.521L92.696,44.365 M37.696,58.298c0.795,1.658,10.014,4.693,25.146,4.693
		c15.4,0,24.933-3.046,25.854-4.719v-9.142c-5.957,3.036-17.368,4.234-25.854,4.234c-2.251,0-17.698-0.136-25.146-3.751V58.298z"/>
	<path fill="#FFFFFF" d="M62.843,57.49c-2.983,0-29.146-0.238-29.146-8.5c0-1.104,0.896-2,2-2c1.08,0,1.96,0.857,1.999,1.927
		c0.809,1.659,9.802,4.573,25.147,4.573c15.21,0,24.985-3.338,25.855-5.088c0.046-1.064,0.923-1.912,1.998-1.912
		c1.104,0,2,0.896,2,2C92.696,55.094,74.843,57.49,62.843,57.49z"/>
	<path fill="#702C17" d="M65.696,94.365c-1.104,0-2-0.896-2-2V78.873l-1.466,1.752c-0.71,0.847-1.972,0.959-2.817,0.251
		c-0.848-0.709-0.96-1.971-0.251-2.817l5-5.977c0.541-0.646,1.425-0.885,2.217-0.597c0.791,0.287,1.299,1.038,1.299,1.88v19
		C67.678,93.47,66.801,94.365,65.696,94.365z"/>
	<path fill="#702C17" d="M69.678,94.991h-9c-1.105,0-2-0.896-2-2s0.895-2,2-2h9c1.104,0,2,0.896,2,2S70.782,94.991,69.678,94.991z"
		/>
	<path fill="#702C17" d="M63.659,102.991c-3.514,0-21.039-0.313-21.039-6.5v-33.04c0-1.104,0.896-2,2-2
		c0.57,0,1.085,0.238,1.449,0.621c1.618,0.641,8.75,1.919,17.59,1.919c9.269,0,15.927-1.482,17.415-2.171
		c0.363-0.502,0.955-0.829,1.622-0.829c1.104,0,2,0.896,2,2v33.5C84.696,102.678,67.172,102.991,63.659,102.991z M46.62,96.197
		c1.097,1.011,7.007,2.794,17.039,2.794c10.031,0,15.94-1.783,17.037-2.794V66.16c-0.896,0.243-1.964,0.472-3.224,0.698
		c-2.361,0.423-7.297,1.133-13.813,1.133c-6.404,0-11.377-0.625-13.771-0.998c-1.29-0.2-2.37-0.397-3.269-0.604V96.197z"/>
	<path fill="#702C17" d="M92.696,44.365v14c0,6.823-19.527,8.626-29.854,8.626c-10.825,0-29.146-1.816-29.146-8.626v-13.5
		c0-1.104,0.377,0.251,1.481,0.251c1.08,0,0.17,0.168,2.469,0.156c0.808,1.659,9.85,4.093,25.196,4.093
		c15.21,0,24.822-3.654,26.168-5 M37.678,57.991c0.795,1.658,10.032,5,25.165,5c15.4,0,24.933-3.046,25.854-4.719v-9.142
		c-5.957,3.036-17.368,4.234-25.854,4.234c-2.251,0-17.717,0.241-25.165-3.374V57.991z"/>
	<path fill="#702C17" d="M35.696,47.491c0,3.59,11.959,6.5,27.146,6.5c15.187,0,27.854-2.41,27.854-6v11
		c0,1.767-3.072,3.398-8,4.602v27.37c8.531,1.775,14,4.726,14,8.028v10c0,5.353-14.353,10-32.854,10
		c-18.502,0-33.146-3.647-33.146-9v-11c0-3.268,5.463-6.189,13.924-7.971V63.894c-5.503-1.224-8.924-2.983-8.924-4.903V47.491
		 M35.678,44.71c-2.209,0-3.981,0.572-3.981,2.781v11.5c0,4.6,5.17,6.867,8.981,8v21c-11.412,3.034-13.981,7.522-13.981,11v11
		c0,12.063,28.432,13,37.146,13c18.344,0,36.835-4.329,36.835-14v-10c0-3.513-2.525-7.976-14-11v-21c3.472-1.142,8-3.729,8-8v-11
		c0-2.209-1.772-4-3.981-4c-1.785,0-3.297,1.169-3.812,2.784c-1.918,1.151-9.652,3.216-24.042,3.216
		c-13.24,0-21.342-2.208-23.29-3.565C37.24,45.335,37.469,45.179,35.678,44.71L35.678,44.71z"/>
</g>
</svg>
